<svg version="1.1" xmlns="http://www.w3.org/2000/svg" xmlns:xlink="http://www.w3.org/1999/xlink" width="14" height="14" viewBox="0,0,256,256"><g fill="none" fill-rule="nonzero" stroke="#354f52" stroke-width="1.5" stroke-linecap="round" stroke-linejoin="round" stroke-miterlimit="10" stroke-dasharray="" stroke-dashoffset="0" font-family="none" font-weight="none" font-size="none" text-anchor="none" style="mix-blend-mode: normal"><g transform="scale(18.28571,18.28571)"><path d="M1,5.66667h12M3.66667,1v1.33333M10.3333,1v1.33333M3.13333,13h7.73337c0.7467,0 1.1201,0 1.4053,-0.1453c0.2509,-0.1278 0.4549,-0.3318 0.5827,-0.5827c0.1453,-0.2852 0.1453,-0.6586 0.1453,-1.4053v-6.40003c0,-0.74674 0,-1.12011 -0.1453,-1.40532c-0.1278,-0.25089 -0.3318,-0.45486 -0.5827,-0.58269c-0.2852,-0.14533 -0.6586,-0.14533 -1.4053,-0.14533h-7.73337c-0.74673,0 -1.1201,0 -1.40532,0.14533c-0.25088,0.12783 -0.45486,0.3318 -0.58268,0.58269c-0.14533,0.28521 -0.14533,0.65858 -0.14533,1.40532v6.40003c0,0.7467 0,1.1201 0.14533,1.4053c0.12782,0.2509 0.3318,0.4549 0.58268,0.5827c0.28522,0.1453 0.65858,0.1453 1.40532,0.1453z"></path></g></g></svg>