<svg version="1.1" xmlns="http://www.w3.org/2000/svg" xmlns:xlink="http://www.w3.org/1999/xlink" width="19" height="19" viewBox="0,0,256,256"><g fill="none" fill-rule="nonzero" stroke="#354f52" stroke-width="1.6" stroke-linecap="round" stroke-linejoin="round" stroke-miterlimit="10" stroke-dasharray="" stroke-dashoffset="0" font-family="none" font-weight="none" font-size="none" text-anchor="none" style="mix-blend-mode: normal"><g transform="translate(-0.00862,-10.66253) scale(13.47368,13.47368)"><path d="M15.0423,13.4577h1.5834c0.475,0 0.7916,-0.3167 0.7916,-0.7917v-2.375c0,-0.71248 -0.5541,-1.34582 -1.1875,-1.50415c-1.425,-0.39583 -3.5625,-0.87083 -3.5625,-0.87083c0,0 -1.0291,-1.10834 -1.7416,-1.82084c-0.3959,-0.31666 -0.8709,-0.55416 -1.42505,-0.55416h-5.54167c-0.475,0 -0.87083,0.31666 -1.10833,0.7125l-1.10833,2.29583c-0.10483,0.30576 -0.15834,0.62677 -0.15834,0.95v3.16665c0,0.475 0.31667,0.7917 0.79167,0.7917h1.58333"></path><path d="M5.54232,15.0417c0.87445,0 1.58333,-0.7089 1.58333,-1.5834c0,-0.8744 -0.70888,-1.5833 -1.58333,-1.5833c-0.87445,0 -1.58334,0.7089 -1.58334,1.5833c0,0.8745 0.70889,1.5834 1.58334,1.5834z"></path><path d="M7.125,13.459h4.75"></path><path d="M13.4583,15.0417c0.8745,0 1.5834,-0.7089 1.5834,-1.5834c0,-0.8744 -0.7089,-1.5833 -1.5834,-1.5833c-0.8744,0 -1.5833,0.7089 -1.5833,1.5833c0,0.8745 0.7089,1.5834 1.5833,1.5834z"></path></g></g></svg>