<svg version="1.1" xmlns="http://www.w3.org/2000/svg" xmlns:xlink="http://www.w3.org/1999/xlink" width="18" height="18" viewBox="0,0,256,256"><g fill="none" fill-rule="nonzero" stroke="#354f52" stroke-width="2" stroke-linecap="round" stroke-linejoin="round" stroke-miterlimit="10" stroke-dasharray="" stroke-dashoffset="0" font-family="none" font-weight="none" font-size="none" text-anchor="none" style="mix-blend-mode: normal"><g transform="translate(0.10932,0.06409) scale(14.22222,14.22222)"><path d="M16.2973,13.5007l-6,-10.50004c-0.1308,-0.23085 -0.32052,-0.42286 -0.54978,-0.55645c-0.22926,-0.13359 -0.48985,-0.20398 -0.7552,-0.20398c-0.26534,0 -0.52593,0.07039 -0.75519,0.20398c-0.22926,0.13359 -0.41898,0.3256 -0.5498,0.55645l-6,10.50004c-0.13224,0.229 -0.20158,0.4889 -0.201,0.7533c0.00059,0.2645 0.07108,0.5241 0.20433,0.7525c0.13325,0.2285 0.32453,0.4176 0.55444,0.5483c0.22991,0.1307 0.49028,0.1982 0.75473,0.1959h11.99997c0.2632,-0.0003 0.5217,-0.0698 0.7495,-0.2016c0.2278,-0.1317 0.4169,-0.3211 0.5484,-0.5491c0.1315,-0.228 0.2007,-0.4866 0.2006,-0.7497c-0.0001,-0.2632 -0.0694,-0.5217 -0.201,-0.7496z"></path><path d="M9,6.75v3"></path><path d="M9,12.75h0.0075"></path></g></g></svg>