<svg version="1.1" xmlns="http://www.w3.org/2000/svg" xmlns:xlink="http://www.w3.org/1999/xlink" width="16" height="16" viewBox="0,0,256,256"><g fill="none" fill-rule="nonzero" stroke="#354f52" stroke-width="2" stroke-linecap="round" stroke-linejoin="round" stroke-miterlimit="10" stroke-dasharray="" stroke-dashoffset="0" font-family="none" font-weight="none" font-size="none" text-anchor="none" style="mix-blend-mode: normal"><g transform="translate(-0.00819,-0.00013) scale(12.8,12.8)"><path d="M12.4993,1.66602h-4.99995c-0.46024,0 -0.83333,0.37309 -0.83333,0.83333v1.66667c0,0.46023 0.37309,0.83333 0.83333,0.83333h4.99995c0.4603,0 0.8334,-0.3731 0.8334,-0.83333v-1.66667c0,-0.46024 -0.3731,-0.83333 -0.8334,-0.83333z"></path><path d="M13.334,3.33398h1.6666c0.4421,0 0.866,0.1756 1.1786,0.48816c0.3125,0.31256 0.4881,0.73648 0.4881,1.17851v11.66665c0,0.442 -0.1756,0.866 -0.4881,1.1785c-0.3126,0.3126 -0.7365,0.4882 -1.1786,0.4882h-9.99995c-0.44203,0 -0.86595,-0.1756 -1.17851,-0.4882c-0.31256,-0.3125 -0.48816,-0.7365 -0.48816,-1.1785v-11.66665c0,-0.44203 0.1756,-0.86595 0.48816,-1.17851c0.31256,-0.31256 0.73648,-0.48816 1.17851,-0.48816h1.66667"></path><path d="M10,9.16602h3.3333"></path><path d="M10,13.334h3.3333"></path><path d="M6.66602,9.16602h0.01"></path><path d="M6.66602,13.334h0.01"></path></g></g></svg>