<svg version="1.1" xmlns="http://www.w3.org/2000/svg" xmlns:xlink="http://www.w3.org/1999/xlink" width="15" height="16" viewBox="0,0,240,256"><g fill="none" fill-rule="nonzero" stroke="#354f52" stroke-width="1.5" stroke-linecap="round" stroke-linejoin="round" stroke-miterlimit="10" stroke-dasharray="" stroke-dashoffset="0" font-family="none" font-weight="none" font-size="none" text-anchor="none" style="mix-blend-mode: normal"><g transform="translate(6.45736,-0.00944) scale(16,16)"><path d="M11.8276,6.66732c0,3.32866 -3.27575,6.79538 -4.37575,7.86598c-0.10248,0.0869 -0.22722,0.1339 -0.35543,0.1339c-0.12822,0 -0.25296,-0.047 -0.35543,-0.1339c-1.1,-1.0706 -4.37576,-4.53732 -4.37576,-7.86598c0,-1.41449 0.49847,-2.77104 1.38574,-3.77124c0.88726,-1.00019 2.09066,-1.5621 3.34545,-1.5621c1.25479,0 2.45818,0.56191 3.34548,1.5621c0.8872,1.0002 1.3857,2.35675 1.3857,3.77124z"></path><path d="M7.09646,8.66602c0.97986,0 1.77419,-0.89543 1.77419,-2c0,-1.10457 -0.79433,-2 -1.77419,-2c-0.97986,0 -1.77419,0.89543 -1.77419,2c0,1.10457 0.79433,2 1.77419,2z"></path></g></g></svg>